<svg enable-background="new 0 0 77 60" viewBox="0 0 77 60" xmlns="http://www.w3.org/2000/svg" xmlns:xlink="http://www.w3.org/1999/xlink"><linearGradient id="a" gradientUnits="userSpaceOnUse" x1="38.5" x2="38.5" y1="60" y2="0"><stop offset="0" stop-color="#fafafa"/><stop offset="1" stop-color="#ececec"/></linearGradient><path d="m30.9 0v4.4c-6.2 2.3-11.1 5.9-14.6 10.7-3.5 4.9-5.3 10-5.3 15.3 0 1.1.2 2 .5 2.5.2.4.5.5.8.5s.7-.2 1.3-.6c1.9-1.4 4.3-2.1 7.3-2.1 3.4 0 6.4 1.4 9 4.2s3.9 6.1 3.9 9.9c0 4-1.5 7.5-4.5 10.6s-6.7 4.6-11 4.6c-5 0-9.3-2.1-13-6.2-3.5-4.1-5.3-9.7-5.3-16.6 0-8.1 2.5-15.3 7.4-21.7 5-6.5 12.8-11.6 23.5-15.5zm43.1 0v4.4c-6.2 2.3-11.1 5.9-14.6 10.7-3.5 4.9-5.3 10-5.3 15.2 0 1.1.2 2 .5 2.5.2.4.5.5.8.5s.7-.2 1.3-.6c1.9-1.4 4.3-2.1 7.3-2.1 3.4 0 6.4 1.4 9 4.2s3.9 6.1 3.9 9.9c0 4-1.5 7.5-4.5 10.6s-6.7 4.6-11 4.6c-5 0-9.3-2.1-13-6.2-3.6-4.1-5.5-9.7-5.5-16.6 0-8.1 2.5-15.3 7.4-21.7 5.2-6.4 13-11.5 23.7-15.4z" fill="url(#a)"/></svg>