<svg enable-background="new 0 0 222 32" viewBox="0 0 222 32" xmlns="http://www.w3.org/2000/svg"><g fill="#9d9d9d"><path d="m6.1 20.2h.1c.9-1 4.9-5.1 5.7-6s1.4-1.6 1.4-2c0-.3-.1-.5-.4-.5-.2-.1-.4-.1-.4-.3s.1-.2.4-.2c.6 0 2.1.1 2.8.1.8 0 2.3-.1 3.2-.1.3 0 .5.1.5.2 0 .2-.1.2-.4.2-.4 0-1.1.1-1.6.3-.8.3-1.8.9-2.9 2-.8.8-5 4.9-5.9 5.9 1 1.3 6.3 7 7.4 8 1.2 1.1 2.4 2.4 3.9 2.9.8.3 1.4.4 1.7.4.2 0 .4.1.4.2 0 .2-.1.3-.7.3h-2.4c-.8 0-1.3 0-1.9-.1-1.5-.1-2.2-.7-3.4-1.8s-6.6-7.4-7.1-8.1l-.3-.4h-.1v2.5c0 2.5 0 4.7.1 5.8.1.8.3 1.4 1 1.5.4.1 1 .1 1.3.1.2 0 .4.1.4.2 0 .2-.2.3-.5.3-1.5 0-3.2-.1-3.9-.1-.6 0-2.3.1-3.4.1-.4 0-.5-.1-.5-.3 0-.1.1-.2.4-.2.4 0 .7-.1 1-.1.5-.1.7-.7.8-1.5.1-1.1.1-3.3.1-5.8v-4.7c0-4.1 0-4.9-.1-5.8s-.3-1.4-1.2-1.6c-.2-.1-.7-.1-1.1-.1-.3 0-.5-.1-.5-.2 0-.2.2-.2.6-.2 1.4 0 3.2.1 3.8.1.7 0 2.4-.1 3.3-.1.4 0 .6.1.6.2 0 .2-.2.2-.4.2-.3 0-.4 0-.8.1-.7.1-1 .6-1 1.6-.1.9-.1 1.6-.1 5.8v1.2z"/><path d="m20.5 22.9c0-4 2.8-9.1 10-9.1 6 0 9.8 3.4 9.8 8.7s-3.9 9.5-10 9.5c-7 0-9.8-5-9.8-9.1zm16.3.5c0-5.1-3.1-8.3-6.9-8.3-2.7 0-5.8 1.4-5.8 7.1 0 4.8 2.7 8.5 7.2 8.5 1.7 0 5.5-.7 5.5-7.3z"/><path d="m46.3 28.5c.1 1.8.4 2.3.8 2.5.4.1.9.2 1.3.2.3 0 .4.1.4.2 0 .2-.2.2-.5.2-1.6 0-2.7-.1-3.1-.1-.2 0-1.4.1-2.6.1-.3 0-.5 0-.5-.2 0-.1.2-.2.4-.2.3 0 .8 0 1.1-.1.6-.2.7-.8.7-2.8l.2-13.7c0-.5.2-.8.4-.8.3 0 .6.4 1 .8.3.3 3.9 4 7.4 7.4 1.6 1.6 4.8 4.9 5.2 5.2h.1l-.2-10.3c0-1.4-.2-1.8-.8-2-.4-.1-.9-.1-1.3-.1-.3 0-.4-.1-.4-.2 0-.2.2-.2.6-.2 1.3 0 2.5.1 3.1.1.3 0 1.2-.1 2.3-.1.3 0 .5 0 .5.2 0 .1-.1.2-.4.2-.2 0-.4 0-.7.1-.7.2-.8.6-.9 1.9l-.3 14.6c0 .5-.2.7-.4.7-.4 0-.7-.2-1-.5-1.5-1.4-4.5-4.3-7-6.7-2.6-2.5-5.1-5.3-5.6-5.7h-.1z"/><path d="m67.4 20.9c0-3.5 0-4.2 0-4.9-.1-.8-.3-1-1-1.3-.2-.1-.6-.1-1-.1-.2 0-.4-.1-.4-.2 0-.2.2-.2.5-.2 1.3 0 2.8.1 3.5.1s2.5-.1 3.9-.1c3 0 7 0 9.6 2.6 1.2 1.2 2.3 3.1 2.3 5.9 0 2.9-1.3 5.1-2.6 6.5-1.1 1.1-3.6 2.7-8 2.7-.9 0-1.9-.1-2.9-.1-1-.1-1.8-.1-2.4-.1-.3 0-.8 0-1.4 0s-1.2.1-1.7.1c-.3 0-.5-.1-.5-.2s.1-.2.4-.2c.4 0 .6 0 .8-.1.5-.1.6-.5.7-1.2.1-1 .1-2.8.1-4.9v-4.3zm3.3 2.5c0 2.5 0 4.2.1 4.7 0 .6.1 1.4.3 1.6.3.4 1.3.9 3.1.9 2.2 0 3.8-.4 5.2-1.6 1.6-1.3 2-3.4 2-5.8 0-2.9-1.2-4.9-2.2-5.8-2.2-2-4.8-2.2-6.7-2.2-.5 0-1.3.1-1.5.2s-.3.2-.3.5v4.5z"/><path d="m89.1 20.9c0-3.5 0-4.2 0-4.9-.1-.8-.3-1-1-1.3-.2-.1-.6-.1-1-.1-.2 0-.4-.1-.4-.2 0-.2.2-.2.5-.2 1.3 0 2.8.1 3.3.1.8 0 3-.1 3.7-.1 1.5 0 3.3.1 4.5 1 .7.5 1.7 1.6 1.7 3.2 0 1.7-1 3.2-3.3 5.1 2.1 2.6 3.8 4.7 5.3 6.2 1.3 1.3 2.2 1.4 2.6 1.5.2.1.4.1.6.1s.3.1.3.2c0 .2-.2.2-.5.2h-2.3c-1.3 0-2-.1-2.6-.5-1-.5-1.9-1.6-3.3-3.4-1-1.3-2-2.8-2.3-3.2-.1-.1-.3-.2-.4-.2l-2.2-.1c-.1 0-.2.1-.2.2v.5c0 2.2 0 4 .1 4.9.1.7.2 1.1.9 1.2.4.1.9.1 1.2.1.2 0 .3.1.3.2 0 .2-.2.2-.5.2-1.4 0-3.4-.1-3.7-.1-.5 0-2 .1-2.9.1-.3 0-.5-.1-.5-.2s.1-.2.4-.2c.4 0 .6 0 .8-.1.5-.1.6-.5.7-1.2.1-1 .1-2.8.1-4.9v-4.1zm3 1.8c0 .2.1.3.2.4.5.2 1.2.2 1.8.2 1 0 1.3-.1 1.7-.4.7-.5 1.6-1.5 1.6-3.4 0-3.3-2.2-4.1-3.6-4.1-.6 0-1.2 0-1.4.1s-.2.1-.2.3v6.9z"/><path d="m111.8 25.9c-.1 0-.2 0-.2.2l-1.3 3.1c-.2.6-.4 1.1-.4 1.4 0 .4.2.7 1 .7h.4c.3 0 .4.1.4.2 0 .2-.1.2-.4.2-.8 0-1.9-.1-2.7-.1-.2 0-1.5.1-2.8.1-.3 0-.4-.1-.4-.2s.1-.2.3-.2h.7c1.1-.2 1.5-.9 2-2l6.3-14.6c.3-.7.5-.9.7-.9.4 0 .5.2.7.7.6 1.3 4.6 10.8 6.1 14.3.9 2.1 1.6 2.4 2 2.5s.6.1.9.1c.2 0 .3.1.3.2 0 .2-.1.2-1 .2-.8 0-2.6 0-4.6-.1-.4 0-.7 0-.7-.2 0-.1.1-.2.3-.2s.3-.2.2-.5l-1.9-4.7c-.1-.1-.1-.2-.2-.2zm5.1-1.3c.1 0 .1-.1.1-.1l-2.3-5.9c0-.1-.1-.2-.1-.2-.1 0-.1.1-.1.2l-2.3 5.9c-.1.1 0 .2.1.2h4.6z"/><path d="m130.4 15.6-3.6.1c-1.4 0-2 .2-2.3.7-.2.3-.4.6-.4.8-.1.2-.1.3-.3.3s-.2-.1-.2-.4c0-.4.5-2.6.5-2.8.1-.3.1-.4.3-.4s.4.2 1 .3c.7.1 1.6.1 2.4.1h9.7c.8 0 1.3-.1 1.6-.1.4-.1.6-.1.7-.1.2 0 .2.1.2.5 0 .5-.1 2.2-.1 2.8 0 .2-.1.4-.2.4-.2 0-.2-.1-.3-.5v-.2c-.1-.6-.7-1.3-2.8-1.3l-3-.1v9.3c0 2.1 0 4 .1 5 .1.7.2 1.1.9 1.2.3.1.9.1 1.2.1s.4.1.4.2c0 .2-.2.2-.5.2-1.6 0-3.2-.1-3.9-.1-.5 0-2.2.1-3.1.1-.3 0-.5-.1-.5-.2s.1-.2.4-.2c.4 0 .7 0 .8-.1.5-.1.6-.5.7-1.2.1-1 .1-2.8.1-4.9v-9.5z"/><path d="m142.7 31.4c-.4-.2-.5-.3-.5-.8 0-1.3.1-2.7.1-3.1s.1-.6.3-.6.2.2.2.4c0 .3.1.8.2 1.2.5 1.7 2.3 2.3 3.8 2.3 2.1 0 3.3-1.3 3.3-2.9 0-1-.2-2-2.4-3.3l-1.4-.8c-2.8-1.7-3.8-3.2-3.8-5.3 0-2.8 2.7-4.7 6-4.7 1.6 0 2.8.2 3.4.4.2.1.3.1.3.3 0 .3-.1 1-.1 2.8 0 .5-.1.7-.3.7s-.2-.1-.2-.4c0-.2-.1-.9-.6-1.5-.4-.4-1.1-1.1-2.7-1.1-1.7 0-3.3.9-3.3 2.5 0 1 .4 1.9 2.5 3.1l1 .5c3.2 1.7 4.1 3.5 4.1 5.6 0 1.7-.7 3.1-2.4 4.3-1.1.8-2.7 1-4 1-1 0-2.5-.1-3.5-.6z"/><path d="m161 21.9h.1c.8-.9 4.3-4.3 5-5.1s1.2-1.3 1.2-1.7c0-.2-.1-.4-.3-.5s-.3-.1-.3-.2c0-.2.1-.2.4-.2.5 0 1.8.1 2.5.1s2.1-.1 2.8-.1c.2 0 .4.1.4.2 0 .2-.1.2-.4.2-.4 0-1 .1-1.4.3-.8.3-1.5.8-2.5 1.7-.8.7-4.3 4.1-5.1 4.9.8 1.1 5.6 6 6.5 6.9 1.1 1 2 2 3.3 2.5.7.3 1.2.3 1.5.3.2 0 .3.1.3.2 0 .2-.1.2-.6.2h-2.1c-.7 0-1.1 0-1.7-.1-1.3-.1-2.1-.6-3.1-1.5s-5.6-6.2-6.2-6.9l-.2-.3h-.1v2.2c0 2.1 0 4 .1 5 .1.7.3 1.1.9 1.2.3.1.9.1 1.2.1.2 0 .3.1.3.2 0 .2-.2.2-.5.2-1.3 0-3.1-.1-3.6-.1s-2.1.1-3 .1c-.3 0-.5-.1-.5-.2s.1-.2.4-.2c.4 0 .6 0 .8-.1.5-.1.6-.5.7-1.2.1-1 .1-2.8.1-4.9v-4.1c0-3.5 0-4.2 0-4.9-.1-.8-.3-1-1-1.3-.2-.1-.6-.1-1-.1-.2 0-.4-.1-.4-.2 0-.2.2-.2.5-.2 1.3 0 2.8.1 3.3.1.6 0 2.3-.1 3.1-.1.4 0 .5.1.5.2 0 .2-.1.2-.3.2s-.4 0-.7.1c-.7.1-.8.4-.9 1.3v4.9z"/><path d="m181.1 25.7c0-1.3-.2-1.7-.5-2.4-.2-.4-3.4-5.5-4.3-6.7-.6-.8-1.1-1.4-1.6-1.6-.3-.2-.7-.3-1-.3-.2 0-.4-.1-.4-.2 0-.2.2-.2.5-.2.4 0 2.2.1 3 .1.5 0 1.6-.1 2.7-.1.2 0 .4.1.4.2 0 .2-.2.2-.5.3-.2.1-.3.2-.3.4s.1.5.3.8c.4.7 3.6 6.1 4 6.8.3-.5 3.2-5.5 3.6-6.2.2-.5.4-.9.4-1.2 0-.2-.1-.4-.5-.5-.2-.1-.4-.1-.4-.3s.1-.2.4-.2c.8 0 1.6.1 2.3.1.5 0 2.1-.1 2.6-.1.3 0 .4.1.4.2 0 .2-.2.3-.5.3-.2 0-.7.1-1 .3-.5.2-.7.5-1.3 1.1-.8.9-4.2 6.4-4.7 7.4-.4.8-.3 1.6-.3 2.3v1.9c0 .4 0 1.3.1 2.3.1.7.3 1.1 1 1.2.4.1.9.1 1.2.1s.4.1.4.2c0 .2-.2.2-.5.2-1.5 0-3.1-.1-3.8-.1-.6 0-2.2.1-3.1.1-.3 0-.5-.1-.5-.2s.1-.2.4-.2.6 0 .8-.1c.5-.1.7-.5.7-1.2.1-1 .1-1.9.1-2.3v-2.2z"/></g><path d="m179.9 0h8.3v1.8h-8.3z" fill="#3dd89d"/><path d="m179.9 3.5h8.3v1.8h-8.3z" fill="#3dd89d"/><path d="m179.9 7h8.3v1.8h-8.3z" fill="#3dd89d"/><path d="m212.8 3.5h10v1.8h-10z" fill="#ff6473" transform="matrix(.7074 -.7069 .7069 .7074 60.6567 155.2489)"/><path d="m216.9-.7h1.8v10h-1.8z" fill="#ff6473" transform="matrix(.7074 -.7069 .7069 .7074 60.6567 155.2489)"/><path d="m200.5 9-1.2-1.3 3.5-3.1-3.5-3.2 1.2-1.3 5 4.5z" fill="#ffd13e"/></svg>